<?xml version="1.0" ?><svg id="a" viewBox="0 0 750 750" xmlns="http://www.w3.org/2000/svg"><path d="M558.08,243.32c-22.83-31.54-57.09-52.48-89.46-73.05-28.18-16.49-61.13-20.03-93.2-19.71-20.27,.28-40.89,2.65-59.9,10.1-30.95,13.27-59.16,32.36-82.82,56.35-14.83,14.85-30.81,29.36-42.27,47.59-16.71,25.01-30.83,52.67-33.13,83.13-3.31,57.94,3.67,122.12,45.25,166.12,13.42,14.11,29.59,24.93,45.97,35.26,16.61,10.8,33.66,21.03,51.38,29.88,30.4,14.64,64.7,18.83,98.07,20.36,27.31,1.3,53.72-9.49,76.66-23.52,16.34-10.8,29.93-25.12,43.9-38.72,30.49-27.88,53.98-56.35,66.59-96.43,6.89-20.25,8.14-41.64,7.71-62.86,3.08-47.16-5.77-96.13-34.76-134.51Zm-8.49,226.42c-27.2,67.82-97.23,106.39-169.02,100.3-48.49,0-101.66-7.89-136.34-44.98-26.54-27.55-59.99-79.16-67.09-116.82-4.25-35.4,3.25-71.49,15.86-104.55,7.43-20.16,14.95-41.05,31.13-56,19.66-19.9,43.53-34.79,67.35-49.16,23.79-15.42,50.33-21.54,78.44-22.18,1.5,1.22,3.34,1.98,5.5,1.99,9.61,.06,19.22,.6,28.83,.7,21.2,.35,43.25,.41,63.18,8.5,50.09,22.61,86.1,80.9,102.07,131.87,14.37,50.4-1.71,103.05-19.91,150.32Z"/><path d="M513.69,283.06c-11.95-15.2-26.33-28.2-41.34-40.3-21.02-18.71-43.55-30.26-72.04-31.73-6.41-.67-12.82-1.33-19.23-1.93-3.03-.12-5.93,1.76-7.73,4.09-24.3-.36-47.79,8.72-67.44,22.65-22.16,14.82-42.75,32.64-56.77,55.59-4.74,8.25-8.7,16.92-12.09,25.84-1.23,1.95-2.07,4.18-2.34,6.43-4.86,14.07-8.41,28.66-11.32,43.13-3.83,20.38-4.83,41.82,3.32,61.32,9.12,25.54,29.42,44.56,49.36,61.99,27.01,26.19,47.94,39.35,86.69,40.48,26.28,0,54.14-.37,77.77-13.27,16.4-9.26,32.18-19.85,46.87-31.63,15.42-12.85,26.33-30.06,35.71-47.59,13.63-24.25,15.48-52.64,15.04-79.89,.94-27.51-7.27-53.59-24.46-75.18Zm-223.12-8.27c17.64-14.21,36.24-28.92,59.01-33.36,23.2-5.24,46.94-1.04,70.28,.86,29.78,2.73,65.97,23.49,82.41,48.6,3.07,4.93,5.69,10.15,7.89,15.55-27.9-7.89-57.2-7.27-85.86-10.34-17.95-1.06-35.82-3.72-53.84-3.06-12.8,.4-25.43,2.75-38.19,3.77-23.02,2.07-46.13,3.42-68.74,8.57-1.64,.34-3.3,.7-4.96,1.08,2.47-3.72,5.25-7.27,8.37-10.6,7.18-7.78,15.2-14.68,23.61-21.08Zm-49.43,114.37c-.04-.75-.07-1.5-.1-2.25,6.44,2.38,13.15,4.11,19.37,7.02,36.02,22.1,69,57.6,74.63,100.76-18.01-4.26-34.96-11.03-49.09-24.56-23.49-20.61-41.48-49.5-44.81-80.96Zm121.12,110.5c-4.11-.62-8.21-1.26-12.28-1.96-1.37-11.53-1.8-23.32-5.33-34.46-7.14-25.71-23.45-47.13-42.42-65.38-13.97-13.31-28.54-27.69-47.67-32.88-3.72-.61-8.54-3.04-13.08-4.21,.77-9.08,2.26-18.12,4.72-26.8,3.12-.86,6.33-2.39,9.25-2.71,22.84-5.06,45.97-8.27,69.19-10.93,43.5-4.41,87.9-11.63,131.27-2.68,20.18,3.48,38.83,12.57,58.06,19.32,1.29,.48,2.55,.68,3.76,.66,.27,11.1-.27,22.21-1.19,33.3-8.19-.92-20.7,6-26.7,8.43-27.36,13.6-52.3,34.06-68.02,60.51-9.9,17.14-15.82,36.25-18.21,55.85-.13,2.63-.93,6.01-1.58,9.49-13.32-1.12-26.58-3.66-39.78-5.55Zm127.85-44.98c-13.55,23.22-40.45,47.17-67.79,50.86-1.75,.11-3.5,.17-5.24,.21,1.27-7.01,2.67-14,5-20.74,4.53-12.79,10.75-25.07,17.82-36.63,8.03-11.91,19.05-21.43,30.63-29.77,11.58-8.12,24.13-14.77,37.24-20.06,2-.93,4.1-1.62,6.19-2.31-.16,1.37-.31,2.74-.47,4.11-2.82,19.87-13.19,37.42-23.38,54.34Z"/><path d="M403.29,362.36c-16.43-.36-33-2.09-49.39-.58-10.25,.78-17.06,16.03-8.48,22.86,1.58,1.05,3.22,1.23,5.04,1.12,3.52-.08,7.85,.19,12.14,.33,12.14,.34,24.28,.6,36.41,1.18,12.27,.27,18.37-23.08,4.28-24.92Z"/></svg>